<?xml version="1.0" encoding="UTF-8" standalone="no"?>
<svg
   width="1040"
   height="1040"
   viewBox="-702 0 1040 1040"
   version="1.2"
   id="svg59"
   sodipodi:docname="board.svg"
   inkscape:version="1.3.2 (091e20e, 2023-11-25)"
   xmlns:inkscape="http://www.inkscape.org/namespaces/inkscape"
   xmlns:sodipodi="http://sodipodi.sourceforge.net/DTD/sodipodi-0.dtd"
   xmlns="http://www.w3.org/2000/svg"
   xmlns:svg="http://www.w3.org/2000/svg"
   xmlns:rdf="http://www.w3.org/1999/02/22-rdf-syntax-ns#"
   xmlns:cc="http://creativecommons.org/ns#"
   xmlns:dc="http://purl.org/dc/elements/1.1/"><defs
   id="defs59" />
<sodipodi:namedview
   id="namedview59"
   pagecolor="#ffffff"
   bordercolor="#000000"
   borderopacity="0.25"
   inkscape:showpageshadow="2"
   inkscape:pageopacity="0.0"
   inkscape:pagecheckerboard="0"
   inkscape:deskcolor="#d1d1d1"
   inkscape:zoom="0.432689"
   inkscape:cx="414.84762"
   inkscape:cy="672.53848"
   inkscape:window-width="1680"
   inkscape:window-height="917"
   inkscape:window-x="0"
   inkscape:window-y="25"
   inkscape:window-maximized="1"
   inkscape:current-layer="svg59" />
<title
   id="title1">Sketches</title>
\n<g
   id="g39"
   transform="translate(-97.266204,-618.77862)">
  <path
     fill="none"
     stroke="#000000"
     stroke-width="4"
     stroke-linecap="round"
     stroke-linejoin="round"
     d="m -492.041,725.035 0.097,-1.333 -0.658,2.284 -1.238,6.526 -1.162,10.701 -0.473,12.66 0.053,21.444 1.014,13.016 2.001,16.503 0.922,10.67 0.722,16.086 1.855,27.575 6.064,60.411 1.438,21.145 0.038,4.786 2.372,31.653 1.071,21.308 0.364,19.56 -0.29,18.82 -1.817,55.08 -0.508,5.3 -0.07,11.3 -0.927,22.46 -3.04,54.4 -0.459,35.42 -0.403,10.37 -1.335,23.26 -0.832,5.69 -0.133,5.49 -1.148,13.72 -5.637,58.12 -2.006,30.84 -0.227,23.21 0.678,20.38 2.02,15.66 1.545,8.2 1.268,9.77 0.728,17.56 -1.104,28.31 0.571,10.04 -0.374,1.48 0.335,3.55 -3.209,24.64 0.222,5.12 1.12,7.41 0.373,5.25 -0.367,5.43 -0.432,2.47 -0.515,1.19 0.209,1.76 0.505,0.18 -0.009,0.58 -1.903,7 -0.907,0.94 -0.163,1.31 -0.661,1.45 0.432,-0.62 0.201,0.49 -0.212,-0.16 0.186,-0.78 -0.082,0.36 1.252,-0.66"
     id="path39" />
</g>
<g
   id="g40"
   transform="translate(-97.266204,-618.77862)">
  <path
     fill="none"
     stroke="#000000"
     stroke-width="4"
     stroke-linecap="round"
     stroke-linejoin="round"
     d="m -384.177,728.364 -0.461,0.381 -0.362,1.029 0.132,0.678 0.094,-0.245 0.448,0.494 0.455,1.175 0.326,1.579 -0.004,2.582 -1.313,11.33 -0.573,13.5 -1.552,16.86 0.191,20.896 2.656,32.899 3.109,21.63 2.444,19.746 2.057,23.135 0.602,24.624 -0.229,10.959 0.124,39.026 -0.657,24.098 -1.402,16.58 -1.812,16.46 -4.259,31.49 -1.359,14.01 -1.253,18.22 -1.672,39.84 -0.029,42.26 0.946,42.62 -0.085,21.01 -0.541,15.67 -0.032,11.27 0.733,16.89 -0.09,39.73 0.462,27.66 -0.876,32.97 1.692,29.5 1.002,24.96 -1.533,30.73 -0.411,14.65 0.203,3.15 -0.292,8.64 0.707,8.01 -0.191,5.36 -2.64,14.86 -2.232,9.85 -0.87,7.66 0.119,9.27 0.319,3.74 0.174,0.41 0.219,-0.58 -0.367,-0.15 -0.859,3.69 0.542,4.57 0.296,0.3 0.457,-0.65 -0.46,0.13 -0.286,0.84 0.162,-0.58 0.205,0.12 0.682,-0.76"
     id="path40" />
</g>
<g
   id="g41"
   transform="translate(-97.266204,-618.77862)">
  <path
     fill="none"
     stroke="#000000"
     stroke-width="4"
     stroke-linecap="round"
     stroke-linejoin="round"
     d="m -280.059,732.908 0.745,3.199 -0.309,6.46 -1.827,22.809 -1.957,14.88 -0.522,8.444 -0.08,62.084 0.93,33.429 1.788,37.303 0.62,19.411 0.295,58.815 1.23,69.188 -0.093,20.98 -1.221,57.6 -0.061,44.46 -0.886,53.25 0.038,22.47 -0.52,19.63 -2.278,45.61 -0.617,25.47 0.563,21.84 3.979,38.58 0.984,26.11 0.818,43.5 1.041,29.6 -0.306,9.01 -2.36,22.48 -0.053,4.35 0.197,1.06 0.111,-0.49 0.106,0.28 -0.768,2.81 -3.684,7.49 -0.238,1.11 -0.188,-0.38 0.588,-1.03 0.289,-0.09 0.107,0.42 0.394,-1.03"
     id="path41" />
</g>
<g
   id="g42"
   transform="translate(-97.266204,-618.77862)">
  <path
     fill="none"
     stroke="#000000"
     stroke-width="4"
     stroke-linecap="round"
     stroke-linejoin="round"
     d="m -176.924,735.068 1.472,0.789 0.493,5.51 2.373,14.978 0.432,6.915 -1.06,27.038 -0.868,8.083 -0.962,14.149 -0.48,28.772 -1.097,28.325 -0.176,11.956 0.913,80.157 1.52,54.74 0.162,55.79 0.369,15.84 1.173,25.55 0.021,28.34 -0.721,22.94 -2.723,56 -1.393,41.02 -0.165,24.75 0.85,48.06 -1.806,63.95 -1.617,26.22 -1.159,30.09 -1.015,16.17 -3.549,31.54 -0.555,8.63 0.268,19.18 -1.536,23.07 -0.017,8.44 0.141,0.45 0.123,-0.6 -0.044,-1.87 -0.811,1.04 -2.104,5.83 2.07,-2.64"
     id="path42" />
</g>
<g
   id="g43"
   transform="translate(-97.266204,-618.77862)">
  <path
     fill="none"
     stroke="#000000"
     stroke-width="4"
     stroke-linecap="round"
     stroke-linejoin="round"
     d="m -69.8821,740.068 0.1915,3.586 -0.9788,8.656 -0.3045,7.136 0.609,13.654 -0.0313,6.919 -0.9176,11.801 -1.8208,35.057 -0.4715,19.94 0.3358,21.847 0.8514,24.427 1.6516,31.998 1.6351,23.298 0.4445,14.365 0.0702,19.517 -1.108,52.091 -0.6058,58.13 -2.5609,52.7 -1.6783,44.6 -0.0707,11.74 1.1057,43.58 0.3741,32.42 0.0111,43.86 -0.5841,31.12 0.0915,18.87 0.7295,17.34 2.2103,29.73 1.3458,23.76 0.6278,39.25 -0.3485,13.37 -1.0566,10.7 -1.3696,8.35 -0.7809,11.27 -0.3983,21.15 -2.4713,32.5 0.2768,9.89 -0.1629,-0.69 -0.1488,1.89 0.2896,-0.59 -0.4673,-0.45"
     id="path43" />
</g>
<g
   id="g44"
   transform="translate(-97.266204,-618.77862)">
  <path
     fill="none"
     stroke="#000000"
     stroke-width="4"
     stroke-linecap="round"
     stroke-linejoin="round"
     d="m 32.5371,729.176 1.0011,-0.045 -0.7581,0.2 -1.5284,4.169 -1.1139,4.68 -1.0803,7.89 -2.0596,34.021 -1.591,15.998 -1.8007,27.115 -2.4359,24.103 -0.5518,19.699 0.6478,35.93 0.78,16.475 0.755,13.146 4.6678,58.236 3.1812,56.607 1.2189,37.95 0.987,63.63 1.3241,58.21 3.1461,55.46 0.728,22.59 -0.7129,40.28 -2.2091,63.29 -0.5158,45.88 -0.5928,8.79 -4.3471,39.18 -2.2669,30.55 -0.8591,5.39 -1.0633,3.81 -1.9003,12.54 -1.3661,4.46 -0.016,1.21 0.6734,1.44 0.9075,4.7 0.8386,11.19 1.0854,4.62 -0.3634,0.52 -0.1926,-0.12 -1.2923,3.16 -0.1453,-0.37 -0.215,1.77 0.2339,-0.91"
     id="path44" />
</g>
<g
   id="g45"
   transform="translate(-97.266204,-618.77862)">
  <path
     fill="none"
     stroke="#000000"
     stroke-width="4"
     stroke-linecap="round"
     stroke-linejoin="round"
     d="m 145.208,738.523 -0.022,-0.305 -0.292,0.025 0.632,1.426 0.111,3.26 -1.467,18.15 -0.921,24.672 -1.61,17.634 -2.41,41.156 -0.714,51.477 0.446,32.349 -0.383,26.054 -0.793,21.455 -3.119,45.304 -0.88,21.34 -0.062,18.74 0.568,33.27 -0.323,22.96 -0.86,26.98 -0.179,27.72 0.507,23.4 2.078,40.32 0.513,33.3 -0.182,17.88 -1.35,39.04 0.473,25.5 -0.132,7.54 -0.728,14.07 -2.657,30.93 -5.413,79.75 0.205,11.48 1.454,18.54 -0.133,22.44 0.918,9.03 -0.097,-0.34 -0.346,0.72 -1.009,6.54 -0.358,7.92 -1.797,10.9 -0.11,3.5 0.522,-1.54 -0.065,-0.43 -0.881,-0.13"
     id="path45" />
</g>
<g
   id="g46"
   transform="translate(-97.266204,-618.77862)">
  <path
     fill="none"
     stroke="#000000"
     stroke-width="4"
     stroke-linecap="round"
     stroke-linejoin="round"
     d="m 242.977,731.14 -0.285,-0.178 -0.147,0.236 -1.128,6.265 -1.147,11.381 1.349,19.817 0.628,17.817 0.239,8.158 -0.226,24.934 2.052,54.389 0.085,59.641 0.424,35.052 -0.529,37.888 -1.215,38.2 -0.705,52.26 -1.998,55.4 0.017,44.14 0.545,41.32 -0.1,20.78 -0.943,48.19 0.178,21.19 -0.737,38.66 -0.029,31.88 -0.326,8.93 -0.766,8.66 -4.027,33.63 -0.96,16.29 -0.607,20.2 -1.175,11.76 -0.453,1.85 -0.403,11.07 0.496,11.13 -0.386,5.29 -1.108,5.22 -0.216,2.51 0.81,3.94 -0.358,12.77 0.144,7.36 -0.12,1.69 -0.169,0.26 -0.001,-0.78 -0.757,2.76 -0.478,0.75 -0.647,-0.48"
     id="path46" />
</g>
<g
   id="g47"
   transform="translate(-97.266204,-618.77862)">
  <path
     fill="none"
     stroke="#000000"
     stroke-width="4"
     stroke-linecap="round"
     stroke-linejoin="round"
     d="m 344.616,732.65 -0.113,1.598 -1.583,2.557 -0.178,0.191 -0.1,-0.264 0.605,2.405 0.341,3.368 -0.437,10.53 0.459,12.756 -0.128,8.07 -0.976,17.07 -0.116,12.068 1.418,32.755 1.806,28.772 0.29,10.444 -0.794,31.873 0.673,16.052 0.371,27.386 1.314,20.539 -1.241,13.627 -1.947,15.031 -0.936,11.262 -0.946,17.99 -0.236,15.24 -0.916,11.37 -5.208,42.84 -0.691,8.71 -0.417,8.75 0.333,16.65 -0.154,8.28 -2.513,38.67 -0.519,39.85 -0.543,12.97 -2.41,30.32 -0.46,11.85 -0.266,88.67 0.727,20.97 1.174,14.11 0.233,11.26 -0.179,8.95 -2.553,28.03 -0.434,10.75 0.085,7.8 0.819,13.75 0.354,1.8 -0.643,33 1.575,18.83 -0.19,1.76 -1.086,1.33 -0.632,1.88 -0.429,4.91 0.015,2.51 0.786,5.05 1.028,2.61 0.371,-0.42 0.31,1.2 0.723,-0.03 0.425,1.92 -0.809,6.67 -0.616,1.81 -0.05,-0.55 0.404,-0.55 0.176,0.41 0.057,-0.27 -0.787,-0.3"
     id="path47" />
</g>
<g
   id="g48"
   transform="translate(-97.266204,-618.77862)">
  <path
     fill="none"
     stroke="#000000"
     stroke-width="4"
     stroke-linecap="round"
     stroke-linejoin="round"
     d="m 342.248,733.372 -0.278,-0.316 -0.604,0.349 -1.505,-0.158 -2.432,0.466 -4.618,1.547 -1.669,0.132 -22.908,5.19 -2.073,0.805 -10.645,1.465 -9.077,0.42 -2.355,0.473 -15.488,-1.537 -8.686,-0.182 -23.28,3.743 -2.834,0.747 -5.666,0.571 -19.043,0.53 -2.97,0.379 -7.202,-0.519 -2.903,0.257 -10.931,-0.858 -22.724,-0.737 -14.757,-0.242 -2.938,0.363 -1.545,-0.252 -17.477,-0.005 -11.007,-0.435 -7.928,-0.832 -3.014,0.195 -15.0227,-1.57 -4.4596,-0.87 -23.0018,-2.224 -14.3898,-0.488 -9.997,0.166 -5.4564,-0.263 -2.8164,0.337 -6.591,-0.971 -2.8747,0.247 -1.4031,-0.444 -7.3086,-0.841 -9.20338,-0.086 -24.35512,3.703 -8.7332,0.25 -9.9933,-0.485 -5.2233,0.111 -5.8619,-0.629 -2.2969,0.312 -6.9573,-1.069 -7.4666,-0.385 -8.66,1.056 -14.0463,1.139 -10.5696,-0.629 -12.316,-2.071 -8.639,-0.824 -2.633,0.576 -1.266,-0.334 -6.547,-0.215 -6.074,0.274 -2.59,-0.423 -7.53,0.855 -16.249,0.683 -8.699,-0.645 -8.887,-0.187 -13.723,0.943 -2.492,0.823 -3.652,-0.138 -10.478,0.802 -2.822,-0.249 -6.3,1.031 -12.37,0.878 -13.594,-0.599 -6.722,-0.915 -5.537,-0.163 -2.148,-0.504 -4.754,0.114 -2.602,0.542 -1.214,-0.342 -11.457,-0.55 -2.204,-0.5 -5.584,-0.107 -16.204,-1.566 -12.831,-0.458 -5.242,0.118 -2.372,-0.429 -4.421,-0.151 -1.914,0.23 -4.755,-0.653 -5.672,0.042 -1.65,-0.45 -12.69,1.464 -6.65,0.073 -16.223,-1.718 -3.562,0.035 -1.827,0.448 -11.259,-1.415 -4.11,-0.048 -1.921,0.381 -4.752,-0.576 -2.045,0.351 -1.669,-0.638 -9.177,-1.508 -12.431,-0.856 -1.573,0.663 -0.739,-0.383 -3.161,-0.118 -6.104,0.216 -3.52,1.072 -1.605,-0.124 -2.656,0.73 -1.281,0.84 -0.619,-0.271 -3.17,0.17 -11.296,-0.89 -0.513,0.577 -0.946,-0.389 -0.858,0.307 -3.569,0.008 -1.266,0.463 -1.573,-0.283 -0.447,0.474 -2.285,-1.175 -2.687,0.012 -0.808,0.557 -1.09,-0.293 -0.537,0.387 -1.364,-0.235 -1.292,0.316 -0.734,-0.34 -0.103,0.416 -0.508,-0.737 0.368,-0.006 0.2,-0.427 0.209,0.3"
     id="path48" />
</g>
<g
   id="g49"
   transform="translate(-97.266204,-618.77862)">
  <path
     fill="none"
     stroke="#000000"
     stroke-width="4"
     stroke-linecap="round"
     stroke-linejoin="round"
     d="m 344.196,839.887 -1.291,0.046 -1.919,0.974 -0.616,-0.13 -1.421,0.42 -0.986,-0.253 -2.201,0.438 -1.529,-0.443 -0.676,0.162 -2.161,-0.69 -8.215,0.055 -6.431,0.434 -3.72,-0.583 -1.488,-0.872 -0.478,0.19 -7.268,-0.378 -5.216,-0.494 -9.298,0.728 -14.854,0.18 -7.614,-0.872 -4.458,0.085 -3.206,-0.332 -15.786,1.982 -8.434,0.424 -9.819,1.043 -8.44,1.325 -17.216,2.031 -7.068,0.21 -2.613,-0.368 -4.472,0.079 -6.049,-0.804 -28.858,0.264 -8.999,0.55 -19.13,2.547 -11.093,0.925 -11,-0.499 -7.6718,0.18 -3.0418,-0.237 -19.6542,1.507 -17.6219,-0.143 -12.7691,-0.634 -26.4174,-1.827 -30.435,-2.632 -4.9254,0.077 -17.9734,-1.805 -11.4689,-0.594 -11.9488,-1.336 -28.464,-1.658 -5.7406,-0.596 -7.5887,-0.037 -2.821,0.36 -15.642,-0.993 -6.306,0.487 -4.919,-0.029 -28.731,-1.28 -4.766,0.18 -2.251,-0.212 -8.18,0.969 -6.974,-0.353 -3.286,0.375 -3.403,-0.202 -19.741,0.189 -18.111,1.262 -11.587,1.326 -2.173,0.527 -13.574,-0.544 -26.7,3.377 -13.693,0.384 -6.543,0.658 -7.493,-0.18 -4.089,0.212 -2.002,-0.41 -5.27,0.39 -14.731,0.217 -2.096,-0.281 -6.118,0.295 -13.539,-0.084 -6.22,0.702 -6.539,-0.397 -3.736,0.115 -2.627,-0.447 -3.869,0.406 -2.163,-0.111 -5.593,0.894 -10.887,1.084 -10.775,-0.666 -3.922,0.579 -4.558,-0.044 -2.588,0.409 -0.908,-0.28 -3.18,0.669 -8.66,0.491 -2.812,-0.16 -1.195,0.225 -3.663,-0.651 -3.031,0.038 -1.683,-0.406 -0.597,-0.514 -5.081,-0.625 -11.219,-3.143 -2.927,-0.334 -4.366,-1.293 -1.41,-0.052 -0.441,-0.374 -3.469,-0.171 -2.943,-0.633 -4.592,0.036 -3.019,0.719 -0.255,-0.164 0.087,0.235 -0.69,0.092 -0.455,0.43 -1.385,-0.058 -1.451,0.734"
     id="path49" />
</g>
<g
   id="g50"
   transform="translate(-97.266204,-618.77862)">
  <path
     fill="none"
     stroke="#000000"
     stroke-width="4"
     stroke-linecap="round"
     stroke-linejoin="round"
     d="m 359.259,943.723 -3.177,0.053 -2.795,0.64 -6.186,2.277 -6.189,1.395 -4.901,0.599 -8.936,-0.054 -14.83,2.048 -5.4,-0.303 -2.371,0.406 -9.805,-1.16 -5.922,-0.372 -12.333,-1.734 -13.402,-1.02 -10.426,-0.132 -12.982,0.498 -21.802,-0.324 -10.062,-0.716 -4.015,0.147 -3.826,-0.652 -16.001,-1.517 -13.085,-0.786 -40.91,-2.091 -35.2176,-1.096 -10.6457,-1.018 -4.2037,0.274 -6.4661,-0.829 -23.367,-0.483 -29.6818,0.682 -13.39958,-0.605 -26.75252,-1.86 -8.0931,0.216 -3.8847,0.401 -9.8075,0.093 -4.3582,0.83 -2.0753,-0.3 -6.0828,0.141 -28.1719,1.779 -43.4345,-1.022 -16.976,0.785 -2.902,0.597 -1.329,-0.303 -6.936,-0.324 -15.831,-0.101 -2.644,0.434 -2.61,-0.145 -3.864,0.347 -2.671,0.69 -2.545,0.098 -11.287,1.633 -15.145,2.736 -5.667,0.273 -2.252,0.764 -5.009,-0.261 -7.844,0.314 -5.215,0.705 -6.576,0.124 -2.078,0.351 -10.462,-0.393 -7.353,0.165 -2.081,-0.3 -6.881,0.571 -5.82,-0.127 -2.261,0.513 -2.138,-0.519 -13.209,-1.479 -11.871,-0.92 -2.444,0.23 -6.455,-0.479 -15.263,0.064 -13.157,0.486 -2.351,0.455 -5.824,-0.682 -7.141,-0.357 -2.51,-0.592 -4.922,0.015 -2.272,0.339 -5.917,-0.365 -2.255,0.324 -8.042,-0.276 -11.495,0.286 -1.996,-0.278 -24.169,0.936 -1.867,-0.301 -4.611,0.893 -5.506,0.203 -1.921,0.621 -4.892,-0.315 -2.173,0.225 -14.415,-0.27 -8.113,1.209 -1.561,0.116 -0.786,-0.341 -1.017,0.487 -0.374,-0.162 -0.193,0.704 -0.552,-0.595 -4.275,-0.422 -1.113,-0.441 -0.208,-0.699 0.077,0.223 -0.51,0.287 -0.321,-0.291 0.026,0.479 -0.207,-0.655 -0.789,-0.455 -1.851,0.382 -6.15,3.196"
     id="path50" />
</g>
<g
   id="g51"
   transform="translate(-97.266204,-618.77862)">
  <path
     fill="none"
     stroke="#000000"
     stroke-width="4"
     stroke-linecap="round"
     stroke-linejoin="round"
     d="m 342.442,1053.14 -0.114,0.98 -0.142,-0.83 -2.153,0.25 -1.744,-0.65 -0.952,0.17 -1.309,-0.27 -3.378,1.02 -6.511,0.19 -1.291,-0.33 -11.589,0.57 -5.449,1.52 -4.786,0.49 -2.743,0.69 -2.827,0.06 -1.968,0.45 -5.104,0.45 -11.101,-1.01 -2.142,-0.56 -24.915,-1.24 -7.587,-1.71 -5.008,-0.12 -2.286,-0.61 -15.411,-1.45 -6.892,-1.16 -20.716,-1.37 -18.135,1.39 -4.984,0.89 -3.884,0.09 -7.653,1.52 -6.48,0.3 -2.766,0.45 -5.329,0.08 -2.651,-0.49 -2.635,0.25 -12.837,-0.28 -3.172,0.28 -32.7849,-0.07 -4.0348,-0.42 -4.1434,0.25 -13.7284,-0.34 -16.1651,-2.25 -28.0994,-0.87 -8.5618,-0.46 -2.7907,-0.74 -4.04625,0.08 -10.86371,-1.03 -2.37341,0.15 -6.83353,-0.47 -13.3981,1.03 -2.2735,0.72 -13.0777,0.8 -19.3447,0.11 -14.4665,1.88 -2.6603,0.75 -6.7826,0.76 -18.0632,3.34 -9.682,0.59 -6.136,0.04 -14.71,-0.43 -1.187,-0.25 -13.902,0.86 -2.314,0.48 -15.596,-0.16 -6.182,0.17 -2.329,0.42 -5.746,-0.39 -13.784,-0.09 -7.243,0.42 -3.711,-0.11 -5.028,0.55 -10.579,0.23 -3.008,0.38 -25.866,-0.41 -3.204,0.27 -19.455,-1.98 -18.231,-0.19 -3.165,-0.33 -6.505,0.2 -11.569,-0.32 -2.946,0.22 -7.798,-1.06 -7.796,-0.55 -3.447,-0.72 -10.567,-0.19 -18.215,-1.24 -21.917,-0.02 -2.554,-0.45 -9.039,0.77 -1.211,-0.2 -11.738,0.18 -13.748,1.34 -3.89,0.07 -1.689,-0.31 -17.288,-0.74 -5.36,1.15 -3.232,-0.12 -1.773,0.71 -0.69,-0.36 -0.791,0.67 -5.995,1.76 -6.496,0.48 -0.63,-0.18 -1.535,0.35 -0.723,-0.28 -1.718,0.65 -3.387,-0.36 -0.681,-0.52 -1.588,0.26 -4.439,-0.14 -3.247,-1.1 -0.128,-0.57 0.394,-0.08 0.413,0.47"
     id="path51" />
</g>
<g
   id="g52"
   transform="translate(-97.266204,-618.77862)">
  <path
     fill="none"
     stroke="#000000"
     stroke-width="4"
     stroke-linecap="round"
     stroke-linejoin="round"
     d="m 336.139,1151.31 0.861,0.27 0.604,0.71 -0.262,-0.25 -0.694,0.72 -3.983,1.27 -4.142,0.69 -1.294,0.52 -2.873,-0.03 -4.752,0.86 -1.534,-0.09 -5.252,2.03 -5.617,1.54 -3.104,0.12 -1.682,-0.6 -2.566,0.17 -10.729,-1.58 -6.123,-0.4 -14.945,0.76 -2.334,-0.43 -2.367,0.54 -11.51,0.63 -5.936,-0.09 -2.672,-0.73 -2.819,0.41 -6.767,-0.19 -8.411,0.51 -6.016,-0.01 -19.274,1.02 -10.576,0.89 -3.257,-0.43 -1.716,0.39 -8.466,0.47 -11.388,-0.15 -6.656,-0.6 -3.235,-0.93 -4.954,-0.14 -6.439,-0.83 -21.531,-1.46 -23.9238,-1.02 -8.8449,-0.53 -3.3035,-0.52 -8.5135,0.21 -9.153,-0.62 -3.7777,0.13 -8.9552,-0.69 -3.6405,-0.76 -3.6667,0.36 -9.0803,-0.13 -10.8837,1.03 -20.05257,0.27 -12.31634,-0.31 -10.36209,-0.69 -3.4093,-0.51 -10.0223,-0.15 -6.4991,-0.77 -3.2958,0.18 -12.6405,-2.13 -1.7939,0.18 -10.5602,-0.44 -21.4568,1.22 -14.8735,-0.11 -3.4058,0.24 -9.678,-1.04 -17.071,-0.86 -2.925,0.5 -8.719,-0.67 -6.888,0.31 -2.666,-0.2 -10.035,0.78 -6.857,-0.53 -2.515,0.25 -22.008,-0.37 -14.93,1.43 -2.532,0.92 -1.269,0.08 -6.875,-0.29 -6.547,0.37 -3.544,-0.21 -7.114,0.75 -6.15,0.07 -2.412,0.34 -7.461,-0.16 -7.287,0.48 -8.367,-0.55 -8.008,0.1 -5.146,-0.46 -2.593,0.69 -2.433,-0.65 -12.524,-1.22 -2.634,-0.72 -1.242,0.17 -12.416,-0.61 -7.213,0.17 -2.555,-0.36 -7.584,0.28 -20.89,-1 -2.447,0.44 -2.602,-0.47 -11.965,0.23 -1.952,-0.31 -19.421,2.34 -2.15,-0.41 -1.101,0.37 -17.872,1.51 -2.22,-0.15 -3.536,0.91 -10.389,-1.6 -1.532,-0.78 -1.554,0.38 -7.781,0.64 -4.086,0.08 -1.586,-0.38 -4.014,0.55 -10.065,-0.21 -0.86,0.04 -0.959,0.65 -1.695,-0.39 -2.021,0.36 -0.409,-0.48 -0.949,0.62 -0.866,-0.02 -2.287,0.78 -2.364,0.09 -0.84,-0.62 -0.361,0.32 -2.529,0.31 h -4.163 l -1.519,-0.54 -0.58,0.27 -1.144,-0.75 -0.564,0.09 -1.626,-0.61 -0.863,-0.73 -0.327,0.28 -3.064,-0.15 -0.5,0.33 -1.264,-1.1 -2.161,0.23"
     id="path52" />
</g>
<g
   id="g53"
   transform="translate(-97.266204,-618.77862)">
  <path
     fill="none"
     stroke="#000000"
     stroke-width="4"
     stroke-linecap="round"
     stroke-linejoin="round"
     d="m 339.14,1260.32 1.541,-0.24 -3.56,-1.22 -0.748,-0.69 -0.97,0.29 -2.397,-0.15 -7.086,0.57 -4.002,-0.46 -2.101,0.46 -8.415,0.51 -19.376,0.1 -18.698,-2.84 -3.266,-1.14 -1.682,0.07 -8.703,-1 -20.149,-1.6 -3.987,-0.81 -1.954,0.16 -37.456,-2.66 -38.228,-0.63 -6.286,-0.74 -4.254,0.18 -15.744,-0.44 -4.324,0.34 -10.272,-0.32 -4.147,-0.47 -8.298,0.72 -4.126,0.02 -14.2063,1.75 -37.5647,2.88 -16.5486,-0.19 -19.342,0.26 -3.93632,0.57 -13.32153,-0.91 -11.56875,0.39 -35.8592,2.76 -9.3249,0.05 -3.6807,0.61 -1.8541,-0.27 -11.3867,0.19 -10.9164,1.2 -7.0216,0.13 -3.7265,0.51 -3.9137,-0.46 -9.277,-0.35 -11.016,0.44 -16.078,1.26 -16.723,0.16 -8.852,-0.32 -3.364,0.58 -1.598,-0.42 -9.601,-0.14 -15.068,0.65 -2.817,0.69 -6.918,-0.44 -2.861,0.25 -9.193,-0.58 -22.239,0.01 -5.433,0.33 -5.059,-0.44 -1.353,0.38 -2.309,-0.48 -6.793,-0.54 -12.085,0.11 -2.58,0.63 -5.927,-0.44 -2.257,0.28 -7.107,-0.3 -13.514,0.64 -10.024,-0.2 -6.302,-0.62 -2.571,0.35 -1.287,-0.41 -12.388,-0.76 -8.543,-0.25 -2.413,0.54 -6.064,-0.37 -2.451,0.4 -7.467,-0.84 -8.575,-0.06 -20.243,0.47 -2.25,0.54 -1.052,-0.21 -10.486,0.15 -1.946,0.39 -4.018,0.17 -1.903,0.96 -4.323,-0.37 -1.808,0.47 -0.609,-0.41 -3.653,-0.28 -1.537,-0.43 -3.191,0.07 -1.629,-0.48 -2.812,0.54 -8.407,0.37 -1.217,0.45 -0.593,-0.28 -8.869,-0.26 -0.874,0.3 -2.315,-0.29 -1.037,0.46 -0.347,-0.27 -1.953,-0.1 -0.846,-0.44 -1.177,0.26 -0.588,-0.48 -1.729,0.26 -1.067,-0.33 -1.816,0.19 -6.451,-0.63 h -1.548 l -1.053,0.39 -2.411,-0.33 -0.883,0.64 -0.23,-0.35 -1.668,-0.61 -0.044,-0.57 -6.262,0.63 -6.561,1.49 -0.006,-0.5 0.258,0.47 0.015,-0.42 0.871,-0.6 -0.257,-0.81"
     id="path53" />
</g>
<g
   id="g54"
   transform="translate(-97.266204,-618.77862)">
  <path
     fill="none"
     stroke="#000000"
     stroke-width="4"
     stroke-linecap="round"
     stroke-linejoin="round"
     d="m 339.458,1362.73 -1.524,0.52 -0.012,0.55 -0.398,-0.33 -0.649,0.36 -6.198,1.08 -5.765,1.39 -2.013,0.8 -3.211,-0.07 -8.009,1.01 -17.058,1.1 -1.655,0.58 -3.199,-0.44 -2.488,0.48 -0.945,-0.19 -7.313,0.32 -3.591,0.59 -7.578,0.55 -2.734,0.73 -12.864,-0.52 -8.285,-0.69 -15.656,-2.28 -9.312,-0.8 -2.776,0.44 -8.493,-0.72 -9.369,-0.19 -5.129,0.1 -2.645,0.59 -1.222,-0.35 -6.987,-0.12 -9.196,-0.81 -15.504,0.55 -15.469,2.35 -2.625,1.03 -7.831,0.65 -7.237,1.29 -2.788,-0.11 -5.266,0.8 -2.499,0.97 -1.279,-0.21 -13.0195,0.71 -2.6336,-0.3 -13.1502,0.69 -4.3036,-0.19 -10.9437,0.31 -7.9047,-0.49 -3.0196,0.11 -16.2506,-3.63 -2.7199,-1.29 -1.4136,-0.08 -4.3122,-1.14 -1.3999,0.25 -1.2803,-0.17 -1.2981,-0.64 -4.216,-1.03 -9.9714,-1.11 -3.3323,-0.84 -17.31647,-0.53 -9.68123,0.25 -11.1403,-0.52 -2.8858,0.17 -8.9434,-1.58 -7.8958,-0.75 -3.0519,-0.75 -5.8292,-0.31 -2.7627,0.18 -5.4134,-1.09 -10.0298,-1.31 -2.819,-0.89 -1.5387,0.13 -14.5276,-1.23 -12.6845,0.01 -10.78,0.7 -16.366,-0.38 -2.945,-0.58 -5.51,0.05 -2.635,0.38 -2.659,-0.52 -6.291,-0.29 -5.362,-0.79 -2.851,-0.79 -15.197,0.45 -2.773,0.49 -23.375,1.39 -8.673,0.07 -2.52,-0.5 -5.634,0.17 -2.611,0.53 -1.227,-0.45 -2.54,-0.26 -3.733,0.14 -9.254,-0.88 -15.304,1.53 -2.542,0.77 -1.429,-0.07 -16.768,1.8 -13.532,-0.32 -2.506,-0.39 -8.589,0.81 -4.578,0.08 -3.627,0.63 -1.168,-0.21 -5.765,0.6 -12.83,0.38 -2.485,0.67 -6.041,-0.03 -8.01,0.49 -12.658,-0.34 -5.34,0.22 -2.267,0.45 -5.181,-0.34 -1.998,0.51 -0.957,-0.32 -4.992,-0.3 -7.223,0.31 -4.511,0.49 -2.163,0.68 -12.188,0.01 -8.6,-0.41 -1.742,-0.36 -6.182,0.85 h -4.572 l -1.978,0.65 -1.556,-0.45 -8.485,-0.14 -4.22,0.2 -1.621,0.49 -5.656,-0.15 -3.738,-0.95 -6.958,-3.66 -8.682,-1.45 -1.609,0.39 -0.676,-0.36 -4.22,-0.77 -6.033,-0.17 -3.319,0.3 -1.471,0.66 -1.458,-0.07 -10.419,1.29 -3.144,0.24 -2.031,-0.27 -6.767,0.17 -0.867,0.66 -0.425,-0.35 -5.32,-0.72 -1.479,0.18 -0.791,0.49 -2.444,-0.74 -0.708,-0.51 -0.554,0.15"
     id="path54" />
</g>
<g
   id="g55"
   transform="translate(-97.266204,-618.77862)">
  <path
     fill="none"
     stroke="#000000"
     stroke-width="4"
     stroke-linecap="round"
     stroke-linejoin="round"
     d="m 336.914,1464.24 1.791,1.78 -1.273,-0.97 -2.31,-0.18 -1.824,0.03 -1.017,0.4 -3.562,0.05 -9.282,1.59 -3.519,1.03 -7.359,1.38 -6.23,0.62 -6.642,0.03 -10.992,1.43 -7.321,0.17 -4.794,0.53 -2.29,-0.18 -6.247,0.67 -2.484,-0.21 -3.308,0.26 -15.131,-0.07 -11.367,0.4 -8.517,0.69 -7.977,1.36 -9.627,0.78 -5.652,0.34 -2.827,-0.4 -5.701,0.68 -4.73,0.09 -8.394,0.72 -4.908,0.02 -6.493,-0.21 -8.286,-0.97 -3.358,-0.03 -3.19,-0.78 -14.709,-2.27 -3.225,0.06 -1.636,-0.44 -7.22,-0.47 -3.614,-0.64 -6.847,-0.17 -3.406,-0.6 -1.663,0.34 -28.5384,0.66 -11.4909,0.86 -10.3504,0.26 -27.6324,-0.21 -3.0977,0.39 -20.77671,-0.49 -29.01239,-2.12 -43.0635,-4.34 -8.9814,-0.57 -8.8451,-1.46 -3.354,-0.11 -11.7044,-2.13 -7.6497,-0.71 -3.635,-0.96 -23.548,-0.76 -19.645,-1.41 -11.682,-0.45 -20.807,-1.34 -9.239,-1.14 -7.216,-0.24 -2.86,-0.55 -20.221,1.2 -12.058,-0.05 -24.428,-1.72 -17.321,-0.58 -2.667,-0.64 -1.34,0.29 -6.527,-0.21 -14.109,-1.31 -2.538,-0.56 -6.65,-0.44 -2.329,-0.56 -19.549,-2.43 -6.228,-0.33 -6.296,-0.16 -5.21,0.27 -2.503,-0.27 -7.639,1.16 -13.665,0.59 -2.155,-0.28 -5.564,0.07 -2.148,-0.39 -10.181,0.35 -8.595,0.91 -2.198,0.66 -8.144,0.68 -4.569,0.87 -2.364,-0.16 -5.409,0.96 -19.244,-0.73 -10.301,1.36 -4.17,1.26 -8.163,0.76 -3.522,1 -1.532,0.04 -3.619,0.99 -3.462,0.45 -4.051,0.09 -1.102,-0.43 -6.656,0.32 -0.441,-0.17 0.545,-0.09 0.084,0.26 0.015,-0.4 -1.643,-1.29"
     id="path55" />
</g>
<g
   id="g56"
   transform="translate(-97.266204,-618.77862)">
  <path
     fill="none"
     stroke="#000000"
     stroke-width="4"
     stroke-linecap="round"
     stroke-linejoin="round"
     d="m 339.621,1563.26 -0.158,0.56 -0.455,-0.45 -0.086,0.26 -1.328,0.12 -2.771,0.91 -1.825,0.31 -0.95,-0.33 -1.68,0.75 -1.735,0.17 -5.353,1.63 -3.727,0.68 -7.797,-0.14 -2.768,-0.61 -1.133,-0.74 -14.078,0.75 -1.851,-0.28 -2.892,0.68 -3.727,0.33 -7.564,1.63 -6.528,0.82 -8.779,1.79 -3.669,0.16 -1.496,-0.35 -2.952,0.58 -1.505,-0.01 -6.735,1.43 -4.88,0.67 -2.315,-0.07 -4.935,1.07 -12.043,0.97 -12.542,0.3 -9.129,-0.08 -5.23,-0.36 -2.076,-0.6 -11.922,-0.79 -2.637,0.18 -9.408,-0.84 -5.709,0.45 -2.969,-0.12 -10.474,0.97 -27.513,-0.19 -9.841,-1.2 h -5.758 l -8.5419,-0.51 -2.902,0.2 -10.1077,-1.04 -29.8709,-1.09 -15.7357,-1.11 -15.8213,-2.38 -7.9294,-0.62 -2.8847,0.29 -5.67593,-0.69 -13.42126,-0.05 -16.80801,1.61 -7.7052,-0.01 -31.8356,-2.11 -2.7484,0.37 -4.1901,-0.47 -5.6189,0.09 -7.2398,-0.39 -2.6132,-0.41 -18.128,-0.08 -25.082,-1.74 -7.1,-0.05 -2.933,0.32 -5.355,-0.21 -2.653,0.48 -18.514,-0.74 -5.012,0.15 -2.371,-0.25 -8.45,0.47 -14.975,-0.33 -10.124,0.4 -2.036,0.41 -4.139,-0.02 -2.274,0.55 -4.45,-0.2 -3.029,0.31 -13.06,-0.52 -7.385,0.55 -13.244,-0.72 -16.034,1.3 -2.296,0.64 -5.472,0.15 -2.238,0.67 -1.098,-0.14 -4.448,0.47 -2.362,-0.22 -4.825,0.47 -2.384,-0.43 -1.261,0.31 -5.955,0.25 -15.564,-1.09 -13.083,0.39 -12.469,-0.08 -2.448,0.35 -8.898,-0.74 -4.892,0.21 -2.71,-0.51 -7.955,0.86 -14.32,-0.07 -33.908,-2.44 -2.359,0.38 -7.486,-1.57 -3.828,-0.14 -2.082,-0.7 -5.201,0.34 -6.997,-0.05 -24.736,1.65 -4.138,-0.07 -1.355,0.39 -4.4,-0.68 -3.379,0.18 -2.642,1.05 -3.543,0.7 -3.493,0.47 -5.527,0.01 -1.071,0.53 -5.395,-1.89 -1.871,0.18 -3.511,-0.9 -8.896,-0.66 -1.461,-0.4"
     id="path56" />
</g>
<metadata
   id="metadata59">
  <rdf:RDF>
    <cc:Work
       rdf:about="">
      <dc:title>Sketches</dc:title>
    </cc:Work>
  </rdf:RDF>
</metadata>
</svg>
